<?xml version="1.0" encoding="UTF-8"?>
<svg version="1.1" xmlns="http://www.w3.org/2000/svg" width="1000" height="358">
<path d="M0 0 C66.99 0 133.98 0 203 0 C203 67.32 203 134.64 203 204 C136.01 204 69.02 204 0 204 C0 136.68 0 69.36 0 0 Z " fill="#F3BB2F" transform="translate(0,134)"/>
<path d="M0 0 C66.99 0 133.98 0 203 0 C203 43.23 203 86.46 203 131 C136.01 131 69.02 131 0 131 C0 87.77 0 44.54 0 0 Z " fill="#4AA4DB" transform="translate(222,94)"/>
<path d="M0 0 C37.29 0 74.58 0 113 0 C113 37.29 113 74.58 113 113 C75.71 113 38.42 113 0 113 C0 75.71 0 38.42 0 0 Z " fill="#3FB27D" transform="translate(222,245)"/>
<path d="M0 0 C37.62 0 75.24 0 114 0 C114 36.96 114 73.92 114 112 C76.38 112 38.76 112 0 112 C0 75.04 0 38.08 0 0 Z " fill="#DD0D52" transform="translate(89,0)"/>
<path d="M0 0 C37.29 0 74.58 0 113 0 C113 18.81 113 37.62 113 57 C75.71 57 38.42 57 0 57 C0 38.19 0 19.38 0 0 Z " fill="#454A99" transform="translate(222,17)"/>
<path d="M0 0 C3.96 0 7.92 0 12 0 C13.91843857 3.4990389 15.8347985 6.99918982 17.75 10.5 C18.28882813 11.48226562 18.82765625 12.46453125 19.3828125 13.4765625 C22.36655611 18.93463008 25.26073504 24.41509085 28 30 C30.54601927 26.83666282 32.33704041 23.55686888 34.13671875 19.921875 C34.71357422 18.76171875 35.29042969 17.6015625 35.88476562 16.40625 C36.48576493 15.18754332 37.08667528 13.96879276 37.6875 12.75 C38.29975959 11.51544113 38.91238603 10.28106412 39.52539062 9.046875 C41.02053639 6.03303786 42.51074427 3.01675198 44 0 C48.29 0 52.58 0 57 0 C57 16.83 57 33.66 57 51 C53.7 51 50.4 51 47 51 C46.67 40.44 46.34 29.88 46 19 C41.76453781 27.5105101 41.76453781 27.5105101 37.53344727 36.02319336 C37.00807373 37.07643799 36.4827002 38.12968262 35.94140625 39.21484375 C35.13231812 40.84087524 35.13231812 40.84087524 34.30688477 42.49975586 C33 45 33 45 32 46 C29.36 46 26.72 46 24 46 C19.71 37.42 15.42 28.84 11 20 C10.67 30.23 10.34 40.46 10 51 C6.7 51 3.4 51 0 51 C0 34.17 0 17.34 0 0 Z " fill="#1D1D1B" transform="translate(645,149)"/>
<path d="M0 0 C3.96 0 7.92 0 12 0 C13.91843857 3.4990389 15.8347985 6.99918982 17.75 10.5 C18.28882813 11.48226562 18.82765625 12.46453125 19.3828125 13.4765625 C22.36655611 18.93463008 25.26073504 24.41509085 28 30 C30.54601927 26.83666282 32.33704041 23.55686888 34.13671875 19.921875 C34.71357422 18.76171875 35.29042969 17.6015625 35.88476562 16.40625 C36.48576493 15.18754332 37.08667528 13.96879276 37.6875 12.75 C38.29975959 11.51544113 38.91238603 10.28106412 39.52539062 9.046875 C41.02053639 6.03303786 42.51074427 3.01675198 44 0 C48.29 0 52.58 0 57 0 C57 16.83 57 33.66 57 51 C53.7 51 50.4 51 47 51 C46.67 40.44 46.34 29.88 46 19 C41.76453781 27.5105101 41.76453781 27.5105101 37.53344727 36.02319336 C37.00807373 37.07643799 36.4827002 38.12968262 35.94140625 39.21484375 C35.13231812 40.84087524 35.13231812 40.84087524 34.30688477 42.49975586 C33 45 33 45 32 46 C29.36 46 26.72 46 24 46 C19.71 37.42 15.42 28.84 11 20 C10.67 30.23 10.34 40.46 10 51 C6.7 51 3.4 51 0 51 C0 34.17 0 17.34 0 0 Z " fill="#1D1D1B" transform="translate(577,149)"/>
<path d="M0 0 C5.28 -0.0825 10.56 -0.165 16 -0.25 C18.475 -0.30462402 18.475 -0.30462402 21 -0.36035156 C29.60428542 -0.47301206 36.42897591 -0.42619957 42.97265625 5.91015625 C45.00578783 10.04599425 44.62893103 14.52465923 44 19 C42 22.1875 42 22.1875 40 24 C40.42152344 24.39832031 40.84304688 24.79664063 41.27734375 25.20703125 C42.09912109 26.00173828 42.09912109 26.00173828 42.9375 26.8125 C43.48277344 27.33457031 44.02804687 27.85664063 44.58984375 28.39453125 C47.33829522 31.52365466 47.2810867 34.98907341 47.21484375 39.0078125 C46.76003053 43.22517142 44.57743759 45.46698068 41.5625 48.25 C36.91482104 51.42402466 32.44356877 51.13585954 26.953125 51.09765625 C26.26911621 51.09664917 25.58510742 51.09564209 24.88037109 51.09460449 C22.33689689 51.0893913 19.79344668 51.07543006 17.25 51.0625 C8.71125 51.0315625 8.71125 51.0315625 0 51 C0 34.17 0 17.34 0 0 Z M12 9 C12 12.96 12 16.92 12 21 C14.0622048 21.054348 16.12482816 21.09294961 18.1875 21.125 C19.33605469 21.14820313 20.48460937 21.17140625 21.66796875 21.1953125 C26.06818091 20.93738682 28.86904951 20.13095049 32 17 C31.67028521 13.70285207 31.3773161 12.3773161 29 10 C25.4744746 8.71431528 21.96555437 8.90034446 18.25 8.9375 C16.49429688 8.95103516 16.49429688 8.95103516 14.703125 8.96484375 C13.81109375 8.97644531 12.9190625 8.98804688 12 9 Z M12 30 C12 33.96 12 37.92 12 42 C14.72977064 42.08126109 17.4571017 42.14061663 20.1875 42.1875 C20.95642578 42.21263672 21.72535156 42.23777344 22.51757812 42.26367188 C27.14228882 42.32321751 30.30455076 42.12076324 34 39 C34.75 36 34.75 36 34 33 C32.18796237 30.91591383 30.73665766 30.08620367 27.98461914 29.76416016 C25.56613255 29.70441922 23.1680426 29.73882526 20.75 29.8125 C19.48929688 29.83280273 19.48929688 29.83280273 18.203125 29.85351562 C16.13514062 29.88876536 14.06748729 29.9425698 12 30 Z " fill="#4AA4DB" transform="translate(622,236)"/>
<path d="M0 0 C11 0 11 0 14.56640625 3.48046875 C15.60220056 5.02524102 16.59968877 6.59621569 17.5625 8.1875 C18.6490778 9.83593159 19.73764028 11.48305659 20.828125 13.12890625 C21.35599609 13.9502002 21.88386719 14.77149414 22.42773438 15.61767578 C24.71923554 19.08979819 27.24140141 22.35759818 29.8125 25.625 C31.194375 27.39875 32.57625 29.1725 34 31 C34.33 20.77 34.66 10.54 35 0 C38.63 0 42.26 0 46 0 C46 16.83 46 33.66 46 51 C35 51 35 51 32.40942383 49.24682617 C31.84763428 48.43705322 31.28584473 47.62728027 30.70703125 46.79296875 C30.05669922 45.89513672 29.40636719 44.99730469 28.73632812 44.07226562 C28.10146484 43.12029297 27.46660156 42.16832031 26.8125 41.1875 C26.16603516 40.27806641 25.51957031 39.36863281 24.85351562 38.43164062 C23.62002678 36.69147441 22.40080441 34.94101991 21.20239258 33.17651367 C17.88511917 28.39200594 14.42434235 23.70847073 11 19 C10.67 29.56 10.34 40.12 10 51 C6.7 51 3.4 51 0 51 C0 34.17 0 17.34 0 0 Z " fill="#1D1D1B" transform="translate(768,149)"/>
<path d="M0 0 C6.13578758 4.88074012 10.17499785 10.3600094 11.10546875 18.171875 C11.47993244 26.79466046 9.98000169 33.54433535 4.0703125 40.03125 C-2.72444654 46.19183153 -9.7942766 48.52676088 -18.84765625 48.40625 C-26.83682932 47.67878058 -33.42981641 44.13885492 -38.9375 38.375 C-44.38734565 30.86305059 -45.4009871 24.41732037 -44.25 15.1875 C-41.64363809 6.73130359 -36.61403646 1.71864115 -29.125 -2.625 C-19.08464277 -6.77210407 -9.30192671 -5.18761297 0 0 Z M-30.625 11.8125 C-33.84434061 16.51769012 -33.85509397 20.58197669 -33.25 26.1875 C-31.56605284 31.04715186 -28.49991462 34.35422359 -24.25 37.1875 C-19.0828841 38.90987197 -14.14400242 38.84311622 -9 37.0625 C-4.8203011 34.2127053 -1.88135676 31.08157029 -0.25 26.1875 C0.27166057 21.21889685 0.3224051 17.33231021 -1.9375 12.8125 C-5.51700865 8.74927396 -8.70602084 5.60645878 -14.265625 4.94921875 C-21.45078766 4.71055076 -25.67170458 6.33780506 -30.625 11.8125 Z " fill="#1D1D1B" transform="translate(558.25,152.8125)"/>
<path d="M0 0 C4.29 0 8.58 0 13 0 C13.01458252 1.00377686 13.02916504 2.00755371 13.04418945 3.04174805 C13.10232052 6.7787575 13.17955165 10.51517369 13.26245117 14.25170898 C13.2956311 15.86651963 13.32368458 17.48144431 13.34643555 19.09643555 C13.38011025 21.42285592 13.43242963 23.74823783 13.48828125 26.07421875 C13.49467117 26.79212082 13.5010611 27.51002289 13.50764465 28.24967957 C13.63543856 32.64197334 14.30282943 35.50008533 17 39 C20.70936546 40.85468273 24.96070795 40.5872961 29 40 C32.10648898 37.27235114 33.24949868 34.97369352 34 31 C34.14860808 28.61166853 34.24778427 26.22009126 34.31640625 23.828125 C34.33718735 23.1457074 34.35796844 22.46328979 34.37937927 21.76019287 C34.44452052 19.59022644 34.50359404 17.42014376 34.5625 15.25 C34.60571897 13.77472779 34.64933432 12.29946713 34.69335938 10.82421875 C34.80016518 7.21626834 34.90153153 3.60818867 35 0 C38.96 0 42.92 0 47 0 C47.07463717 4.83801979 47.12883014 9.67569804 47.16479492 14.51416016 C47.17980136 16.15712326 47.20021312 17.80004686 47.22631836 19.44287109 C47.26306359 21.81618042 47.27980772 24.18895625 47.29296875 26.5625 C47.30845261 27.28679199 47.32393646 28.01108398 47.33988953 28.75732422 C47.34197843 35.21157149 45.91173822 40.59667196 41.8125 45.75 C33.6467181 52.28262552 26.47474887 53.11287036 16 52 C9.91968868 50.41668318 5.18752385 46.39036677 2 41 C0.25553209 35.88342759 -0.2735351 31.24081771 -0.1953125 25.87890625 C-0.1924826 25.13414536 -0.18965271 24.38938446 -0.18673706 23.62205505 C-0.17563917 21.26869899 -0.1505551 18.91573891 -0.125 16.5625 C-0.11495672 14.95638575 -0.10583324 13.35026546 -0.09765625 11.74414062 C-0.07573407 7.82927704 -0.04127761 3.9147054 0 0 Z " fill="#4AA4DB" transform="translate(564,236)"/>
<path d="M0 0 C1.14947895 3.55293493 1.0868937 4.79976669 -0.4375 8.3125 C-1.2109375 9.6428125 -1.2109375 9.6428125 -2 11 C-3.06927734 10.67515625 -3.06927734 10.67515625 -4.16015625 10.34375 C-11.43631492 8.22847372 -17.51120397 7.1845343 -25 9 C-25 10.65 -25 12.3 -25 14 C-19.76195782 16.82805094 -14.53332408 18.44589392 -8.83398438 20.01757812 C-3.6550529 21.53732155 0.39143143 23.44091365 3.375 28.1875 C4.45821418 33.06196382 4.3647814 37.61850226 1.8359375 42.03125 C-1.8057658 46.62719641 -6.11416655 49.41190492 -11.98095703 50.29980469 C-14.08063098 50.4378682 -16.14608209 50.46717309 -18.25 50.4375 C-18.98927734 50.43137695 -19.72855469 50.42525391 -20.49023438 50.41894531 C-26.60300313 50.2460428 -32.79782417 49.45390363 -38 46 C-39.06071706 43.67878957 -39.15290339 42.52607319 -38.44140625 40.078125 C-37.62760417 38.38541667 -36.81380208 36.69270833 -36 35 C-33.1836907 35.65040327 -30.5723379 36.53233589 -27.875 37.5625 C-22.96179751 39.22192601 -18.1521499 39.71609304 -13 39 C-12.01 38.34 -11.02 37.68 -10 37 C-10.495 34.525 -10.495 34.525 -11 32 C-11.54414551 31.83918945 -12.08829102 31.67837891 -12.64892578 31.51269531 C-15.14417894 30.7688414 -17.63448795 30.00956966 -20.125 29.25 C-20.9809375 28.99734375 -21.836875 28.7446875 -22.71875 28.484375 C-29.05767326 26.53393707 -34.1894148 24.7158778 -38 19 C-38.71249183 13.72258959 -38.64556003 9.29112006 -36.25 4.5 C-26.99764138 -5.78039847 -12.02104952 -5.06149453 0 0 Z " fill="#4AA4DB" transform="translate(712,238)"/>
<path d="M0 0 C3.63 0 7.26 0 11 0 C11 7.26 11 14.52 11 22 C18.92 22 26.84 22 35 22 C35 14.74 35 7.48 35 0 C38.63 0 42.26 0 46 0 C46 16.83 46 33.66 46 51 C42.37 51 38.74 51 35 51 C35 44.07 35 37.14 35 30 C27.08 30 19.16 30 11 30 C11 36.93 11 43.86 11 51 C7.37 51 3.74 51 0 51 C0 34.17 0 17.34 0 0 Z " fill="#1D1D1B" transform="translate(610,62)"/>
<path d="M0 0 C3.20277977 1.96453035 4.99393106 4.19786972 7.1015625 7.2890625 C4.4615625 9.5990625 1.8215625 11.9090625 -0.8984375 14.2890625 C-2.0121875 13.4640625 -3.1259375 12.6390625 -4.2734375 11.7890625 C-9.1471682 8.74730149 -13.28362921 8.4600304 -18.8984375 9.2890625 C-23.24409628 10.5766651 -25.11731568 12.17601091 -27.2734375 16.0390625 C-29.28010278 20.65945147 -29.85637323 24.52283099 -28.16796875 29.3984375 C-26.75913717 32.54961997 -25.32105592 34.8792507 -22.8359375 37.2890625 C-17.28120092 39.18003666 -11.26657117 39.3744571 -5.8984375 36.9140625 C-5.2384375 36.3778125 -4.5784375 35.8415625 -3.8984375 35.2890625 C-2.9084375 34.6290625 -1.9184375 33.9690625 -0.8984375 33.2890625 C1.7415625 35.5990625 4.3815625 37.9090625 7.1015625 40.2890625 C4.55225591 45.38767567 1.60432871 47.29222816 -3.64453125 49.3828125 C-11.81204686 51.65755874 -21.40476948 51.62298727 -28.97265625 47.546875 C-35.97821947 42.9712333 -40.58846779 38.25135112 -42.4296875 29.87109375 C-43.65923546 20.85906607 -41.97283732 13.70919932 -36.671875 6.30078125 C-27.54990023 -4.0468333 -12.13754855 -5.49550244 0 0 Z " fill="#4AA4DB" transform="translate(506.8984375,237.7109375)"/>
<path d="M0 0 C-1.16730489 3.95087809 -2.44837454 6.78425284 -5 10 C-5.92619141 9.566875 -5.92619141 9.566875 -6.87109375 9.125 C-12.69734843 6.57102535 -17.61946233 5.16117931 -24 6 C-24.99 6.495 -24.99 6.495 -26 7 C-26 8.65 -26 10.3 -26 12 C-21.51817314 14.36775759 -17.18381101 16.3257918 -12.375 17.9375 C-7.23874476 19.74232302 -2.55280967 21.89438066 0 27 C0.41593526 31.51929654 0.55848834 35.64787033 -1.1875 39.875 C-5.70613539 45.17271045 -10.12215947 47.48224039 -17.09765625 48.22265625 C-26.54425858 48.60585176 -34.38529967 45.3813385 -42 40 C-40.94124926 36.59687262 -39.99097846 33.98646769 -38 31 C-35.61118577 31.92470228 -33.26654784 32.8649216 -30.98046875 34.0234375 C-25.78234454 36.5906372 -20.83217692 38.29994305 -15 37 C-13.10425422 35.82857251 -13.10425422 35.82857251 -12 34 C-11.97428447 31.89421616 -11.97428447 31.89421616 -13 30 C-17.41168996 27.38566521 -21.85185124 25.67513678 -26.6875 24 C-31.74442321 22.19995947 -35.43836671 20.48441659 -38.375 15.8125 C-39.54812732 10.53342705 -39.05769943 5.80200644 -36.3125 1.125 C-25.99943137 -8.35187387 -11.60102726 -5.80051363 0 0 Z " fill="#1D1D1B" transform="translate(997,153)"/>
<path d="M0 0 C3.63 0 7.26 0 11 0 C11.01401855 1.55110474 11.01401855 1.55110474 11.02832031 3.13354492 C11.06829421 6.98244776 11.13407249 10.83055746 11.20751953 14.67895508 C11.23568649 16.34226263 11.25692233 18.00570296 11.27099609 19.66918945 C11.29248592 22.06530525 11.33916288 24.45983184 11.390625 26.85546875 C11.39185364 27.5952446 11.39308228 28.33502045 11.39434814 29.09721375 C11.53229153 33.99656419 12.50383333 36.55986688 16 40 C19.45493809 41.72746904 23.21553242 41.35356617 27 41 C29.98341617 40.06150487 29.98341617 40.06150487 32 38 C33.91129202 33.42017544 34.29560861 29.34964127 34.4140625 24.4140625 C34.43342865 23.71227875 34.4527948 23.010495 34.4727478 22.28744507 C34.53207569 20.06675001 34.57873917 17.84600177 34.625 15.625 C34.66322302 14.11065566 34.70227722 12.59633206 34.7421875 11.08203125 C34.83773734 7.38821169 34.92193937 3.6942353 35 0 C38.3 0 41.6 0 45 0 C45.09945752 5.12282759 45.17174409 10.24508354 45.21972656 15.36865234 C45.23974522 17.10866089 45.26696886 18.84860299 45.30175781 20.58837891 C45.35070952 23.10075346 45.37306587 25.61223275 45.390625 28.125 C45.41127014 28.89303955 45.43191528 29.6610791 45.45318604 30.45239258 C45.45592531 37.16324455 43.44966305 42.41035621 38.8125 47.3125 C31.49517031 51.70289781 23.99386237 53.26341217 15.609375 51.49609375 C9.84446858 49.82579802 6.18322617 47.49420321 2.92510986 42.27966309 C0.14608169 37.15128763 -0.55065327 33.12756198 -0.390625 27.34375 C-0.38496521 26.55601196 -0.37930542 25.76827393 -0.37347412 24.95666504 C-0.35129902 22.47045966 -0.30114337 19.98576072 -0.25 17.5 C-0.22991039 15.80210433 -0.21166396 14.10418579 -0.1953125 12.40625 C-0.1514969 8.27026361 -0.08260605 4.1353861 0 0 Z " fill="#1D1D1B" transform="translate(712,149)"/>
<path d="M0 0 C12.54 0 25.08 0 38 0 C38 2.64 38 5.28 38 8 C29.09 8 20.18 8 11 8 C11 12.62 11 17.24 11 22 C18.92 22 26.84 22 35 22 C35 24.64 35 27.28 35 30 C27.08 30 19.16 30 11 30 C11 34.29 11 38.58 11 43 C20.24 43 29.48 43 39 43 C39 45.64 39 48.28 39 51 C26.13 51 13.26 51 0 51 C0 34.17 0 17.34 0 0 Z " fill="#1D1D1B" transform="translate(912,149)"/>
<path d="M0 0 C12.54 0 25.08 0 38 0 C38 2.64 38 5.28 38 8 C29.09 8 20.18 8 11 8 C11 12.62 11 17.24 11 22 C18.92 22 26.84 22 35 22 C35 24.64 35 27.28 35 30 C27.08 30 19.16 30 11 30 C11 34.29 11 38.58 11 43 C20.24 43 29.48 43 39 43 C39 45.64 39 48.28 39 51 C26.13 51 13.26 51 0 51 C0 34.17 0 17.34 0 0 Z " fill="#1D1D1B" transform="translate(511,62)"/>
<path d="M0 0 C1.40119548 1.16325663 2.72646277 2.41704928 4.03125 3.6875 C2.71900452 7.62423644 1.11214673 9.91469294 -1.96875 12.6875 C-2.71125 12.06875 -3.45375 11.45 -4.21875 10.8125 C-9.47003124 6.75469177 -13.41816937 5.9583919 -19.96875 6.6875 C-25.32630096 8.60813148 -28.42712216 11.60424432 -30.96875 16.6875 C-31.52644904 22.65058973 -31.47031448 27.61626868 -27.96875 32.6875 C-23.29983716 37.00624438 -19.57714475 38.01857697 -13.38671875 37.98828125 C-10.03920474 37.57186998 -7.57133801 36.26681141 -4.6953125 34.5625 C-2.96875 33.6875 -2.96875 33.6875 0.03125 33.6875 C1.71875 35.0625 1.71875 35.0625 3.03125 36.6875 C3.03125 37.3475 3.03125 38.0075 3.03125 38.6875 C4.02125 39.1825 4.02125 39.1825 5.03125 39.6875 C-1.76504923 45.40972469 -8.68161534 49.43519941 -17.875 48.9609375 C-26.83934477 47.79022083 -33.0153482 44.58665606 -38.96875 37.6875 C-43.62427823 31.04929398 -44.05011259 23.56326473 -42.96875 15.6875 C-40.75819581 8.3631292 -36.44424906 2.75587637 -29.96875 -1.3125 C-20.35869936 -5.59042397 -9.04808256 -6.03205504 0 0 Z " fill="#1D1D1B" transform="translate(506.96875,152.3125)"/>
<path d="M0 0 C1.40119548 1.16325663 2.72646277 2.41704928 4.03125 3.6875 C2.71900452 7.62423644 1.11214673 9.91469294 -1.96875 12.6875 C-2.71125 12.06875 -3.45375 11.45 -4.21875 10.8125 C-9.47003124 6.75469177 -13.41816937 5.9583919 -19.96875 6.6875 C-25.32630096 8.60813148 -28.42712216 11.60424432 -30.96875 16.6875 C-31.52644904 22.65058973 -31.47031448 27.61626868 -27.96875 32.6875 C-23.29983716 37.00624438 -19.57714475 38.01857697 -13.38671875 37.98828125 C-10.03920474 37.57186998 -7.57133801 36.26681141 -4.6953125 34.5625 C-2.96875 33.6875 -2.96875 33.6875 0.03125 33.6875 C1.71875 35.0625 1.71875 35.0625 3.03125 36.6875 C3.03125 37.3475 3.03125 38.0075 3.03125 38.6875 C4.02125 39.1825 4.02125 39.1825 5.03125 39.6875 C-1.76504923 45.40972469 -8.68161534 49.43519941 -17.875 48.9609375 C-26.83934477 47.79022083 -33.0153482 44.58665606 -38.96875 37.6875 C-43.62427823 31.04929398 -44.05011259 23.56326473 -42.96875 15.6875 C-40.75819581 8.3631292 -36.44424906 2.75587637 -29.96875 -1.3125 C-20.35869936 -5.59042397 -9.04808256 -6.03205504 0 0 Z " fill="#1D1D1B" transform="translate(597.96875,65.3125)"/>
<path d="M0 0 C3.96 0 7.92 0 12 0 C12 13.53 12 27.06 12 41 C20.58 41 29.16 41 38 41 C38 44.3 38 47.6 38 51 C25.46 51 12.92 51 0 51 C0 34.17 0 17.34 0 0 Z " fill="#4AA4DB" transform="translate(522,236)"/>
<path d="M0 0 C14.19 0 28.38 0 43 0 C43 2.97 43 5.94 43 9 C37.72 9 32.44 9 27 9 C27 22.86 27 36.72 27 51 C23.37 51 19.74 51 16 51 C16 37.14 16 23.28 16 9 C10.72 9 5.44 9 0 9 C0 6.03 0 3.06 0 0 Z " fill="#1D1D1B" transform="translate(842,149)"/>
<path d="M0 0 C14.19 0 28.38 0 43 0 C43 2.97 43 5.94 43 9 C37.72 9 32.44 9 27 9 C27 22.86 27 36.72 27 51 C23.37 51 19.74 51 16 51 C16 37.14 16 23.28 16 9 C10.72 9 5.44 9 0 9 C0 6.03 0 3.06 0 0 Z " fill="#1D1D1B" transform="translate(462,62)"/>
<path d="M0 0 C3.63 0 7.26 0 11 0 C11 16.83 11 33.66 11 51 C7.37 51 3.74 51 0 51 C0 34.17 0 17.34 0 0 Z " fill="#1D1D1B" transform="translate(890,149)"/>
<path d="M0 0 C3.63 0 7.26 0 11 0 C11 16.83 11 33.66 11 51 C7.37 51 3.74 51 0 51 C0 34.17 0 17.34 0 0 Z " fill="#1D1D1B" transform="translate(825,149)"/>
</svg>
